<svg xmlns="http://www.w3.org/2000/svg" width="222.602" height="86.265" viewBox="0 0 222.602 86.265">
  <g id="Group_18" data-name="Group 18" transform="translate(-180.008 -626.764)">
    <path id="Path_71" data-name="Path 71" d="M33.121-59.549h2.463a2.021,2.021,0,0,1,1.435.459,1.133,1.133,0,0,1,.369.859v.015a1.206,1.206,0,0,1-.066.419,1.188,1.188,0,0,1-.171.318,1.176,1.176,0,0,1-.249.241,2.006,2.006,0,0,1-.293.177,3.084,3.084,0,0,1,.441.19,1.433,1.433,0,0,1,.344.255,1.023,1.023,0,0,1,.223.349,1.261,1.261,0,0,1,.078.465v.015a1.264,1.264,0,0,1-.145.614,1.251,1.251,0,0,1-.411.445,2,2,0,0,1-.644.269,3.386,3.386,0,0,1-.831.093H33.121ZM35.4-57.366a1.425,1.425,0,0,0,.752-.173.58.58,0,0,0,.282-.53v-.014a.562.562,0,0,0-.247-.485,1.232,1.232,0,0,0-.717-.174H34.079v1.376Zm.282,2.191a1.45,1.45,0,0,0,.776-.177.589.589,0,0,0,.282-.533V-55.9a.58.58,0,0,0-.278-.515,1.582,1.582,0,0,0-.851-.18H34.079v1.419Z" transform="translate(177.08 767.307)" fill="#010101"/>
    <path id="Path_72" data-name="Path 72" d="M43.5-59.549h2.452a2.817,2.817,0,0,1,.919.138,1.86,1.86,0,0,1,.669.381,1.5,1.5,0,0,1,.338.5,1.59,1.59,0,0,1,.117.622v.015a1.582,1.582,0,0,1-.1.573,1.472,1.472,0,0,1-.271.452,1.628,1.628,0,0,1-.412.333,2.126,2.126,0,0,1-.531.211l1.485,1.961H47.025l-1.356-1.806H44.454v1.806H43.5Zm2.378,2.569a1.327,1.327,0,0,0,.827-.235.753.753,0,0,0,.308-.635v-.015a.751.751,0,0,0-.3-.644,1.41,1.41,0,0,0-.843-.219H44.454v1.747Z" transform="translate(176.308 767.307)" fill="#010101"/>
    <path id="Path_73" data-name="Path 73" d="M55.791-59.591h.9l2.42,5.219H58.086l-.559-1.251h-2.6l-.566,1.251H53.37Zm1.383,3.16L56.223-58.5l-.943,2.073Z" transform="translate(175.573 767.312)" fill="#010101"/>
    <path id="Path_74" data-name="Path 74" d="M64.832-59.549h.894l2.941,3.583v-3.583h.959v5.182h-.808l-3.027-3.686v3.686h-.959Z" transform="translate(174.72 767.307)" fill="#010101"/>
    <path id="Path_75" data-name="Path 75" d="M75.785-59.549h2.051a3.425,3.425,0,0,1,1.183.2,2.84,2.84,0,0,1,.927.544,2.435,2.435,0,0,1,.6.818,2.447,2.447,0,0,1,.212,1.018v.015a2.474,2.474,0,0,1-.212,1.021,2.411,2.411,0,0,1-.6.822,2.866,2.866,0,0,1-.927.548,3.38,3.38,0,0,1-1.183.2H75.785Zm2.043,4.36a2.254,2.254,0,0,0,.786-.13,1.718,1.718,0,0,0,.6-.364,1.637,1.637,0,0,0,.385-.558,1.781,1.781,0,0,0,.137-.7v-.015a1.81,1.81,0,0,0-.137-.706,1.62,1.62,0,0,0-.385-.561,1.755,1.755,0,0,0-.6-.368,2.188,2.188,0,0,0-.786-.135H76.743v3.538Z" transform="translate(173.905 767.307)" fill="#010101"/>
    <path id="Path_76" data-name="Path 76" d="M95.373-59.591h.9l2.42,5.219H97.668l-.559-1.251h-2.6l-.566,1.251h-.991Zm1.383,3.16L95.805-58.5l-.943,2.073Z" transform="translate(172.628 767.312)" fill="#010101"/>
    <path id="Path_77" data-name="Path 77" d="M104.415-59.549h2.452a2.817,2.817,0,0,1,.919.138,1.86,1.86,0,0,1,.669.381,1.5,1.5,0,0,1,.338.5,1.61,1.61,0,0,1,.117.622v.015a1.582,1.582,0,0,1-.1.573,1.493,1.493,0,0,1-.271.452,1.615,1.615,0,0,1-.413.333,2.1,2.1,0,0,1-.53.211l1.485,1.961h-1.139l-1.356-1.806h-1.214v1.806h-.959Zm2.377,2.569a1.33,1.33,0,0,0,.828-.235.752.752,0,0,0,.307-.635v-.015a.75.75,0,0,0-.3-.644,1.41,1.41,0,0,0-.843-.219h-1.411v1.747Z" transform="translate(171.775 767.307)" fill="#010101"/>
    <path id="Path_78" data-name="Path 78" d="M117.34-54.291a2.936,2.936,0,0,1-1.115-.207,2.789,2.789,0,0,1-.887-.566,2.61,2.61,0,0,1-.589-.847,2.568,2.568,0,0,1-.214-1.046v-.014a2.592,2.592,0,0,1,.21-1.041,2.6,2.6,0,0,1,.589-.85,2.813,2.813,0,0,1,.9-.578,3.033,3.033,0,0,1,1.148-.21,3.623,3.623,0,0,1,.687.06,2.922,2.922,0,0,1,.57.166,2.64,2.64,0,0,1,.479.255,3.622,3.622,0,0,1,.416.326l-.621.674a3.078,3.078,0,0,0-.7-.467,1.917,1.917,0,0,0-.841-.178,1.821,1.821,0,0,0-.727.144,1.826,1.826,0,0,0-.577.393,1.759,1.759,0,0,0-.377.581,1.882,1.882,0,0,0-.134.71v.015a1.9,1.9,0,0,0,.134.713,1.777,1.777,0,0,0,.377.59,1.787,1.787,0,0,0,.577.4,1.822,1.822,0,0,0,.727.145,1.908,1.908,0,0,0,.865-.182,3.37,3.37,0,0,0,.715-.492l.621.592a3.348,3.348,0,0,1-.443.381,3.1,3.1,0,0,1-.5.291,2.7,2.7,0,0,1-.586.185,3.7,3.7,0,0,1-.7.063" transform="translate(171.021 767.32)" fill="#010101"/>
    <path id="Path_79" data-name="Path 79" d="M125.309-59.549h.959V-57.4h2.641v-2.154h.959v5.182h-.959v-2.183h-2.641v2.183h-.959Z" transform="translate(170.219 767.307)" fill="#010101"/>
    <path id="Path_80" data-name="Path 80" d="M136.066-54.367h.959v-5.182h-.959Z" transform="translate(169.419 767.307)" fill="#010101"/>
    <path id="Path_81" data-name="Path 81" d="M144.264-58.7h-1.746v-.844h4.464v.844h-1.745v4.337h-.973Z" transform="translate(168.939 767.307)" fill="#010101"/>
    <path id="Path_82" data-name="Path 82" d="M152.69-59.549h4.071v.822h-3.113V-57.4h2.758v.822h-2.758v1.384H156.8v.822h-4.11Z" transform="translate(168.182 767.307)" fill="#010101"/>
    <path id="Path_83" data-name="Path 83" d="M165.166-54.291a2.945,2.945,0,0,1-1.115-.207,2.788,2.788,0,0,1-.887-.566,2.627,2.627,0,0,1-.589-.847,2.57,2.57,0,0,1-.214-1.046v-.014a2.591,2.591,0,0,1,.21-1.041,2.6,2.6,0,0,1,.589-.85,2.831,2.831,0,0,1,.9-.578,3.027,3.027,0,0,1,1.147-.21,3.624,3.624,0,0,1,.688.06,2.924,2.924,0,0,1,.57.166,2.64,2.64,0,0,1,.479.255,3.536,3.536,0,0,1,.416.326l-.621.674a3.078,3.078,0,0,0-.7-.467,1.914,1.914,0,0,0-.841-.178,1.822,1.822,0,0,0-.727.144,1.826,1.826,0,0,0-.577.393,1.758,1.758,0,0,0-.377.581,1.881,1.881,0,0,0-.134.71v.015a1.9,1.9,0,0,0,.134.713,1.777,1.777,0,0,0,.377.59,1.787,1.787,0,0,0,.577.4,1.823,1.823,0,0,0,.727.145,1.9,1.9,0,0,0,.865-.182,3.37,3.37,0,0,0,.715-.492l.621.592a3.341,3.341,0,0,1-.443.381,3.094,3.094,0,0,1-.5.291,2.7,2.7,0,0,1-.586.185,3.7,3.7,0,0,1-.7.063" transform="translate(167.462 767.32)" fill="#010101"/>
    <path id="Path_84" data-name="Path 84" d="M174.456-58.7H172.71v-.844h4.464v.844h-1.745v4.337h-.973Z" transform="translate(166.692 767.307)" fill="#010101"/>
    <path id="Path_85" data-name="Path 85" d="M185.131-54.286a3.083,3.083,0,0,1-.967-.144,2,2,0,0,1-.738-.434,1.9,1.9,0,0,1-.471-.714,2.72,2.72,0,0,1-.165-.988v-2.984h.959V-56.6a1.508,1.508,0,0,0,.372,1.1,1.376,1.376,0,0,0,1.027.378,1.4,1.4,0,0,0,1.02-.364,1.446,1.446,0,0,0,.371-1.08v-2.984h.96v2.94a2.806,2.806,0,0,1-.169,1.013,1.966,1.966,0,0,1-.476.729,1.958,1.958,0,0,1-.742.438,3.143,3.143,0,0,1-.978.144" transform="translate(165.942 767.307)" fill="#010101"/>
    <path id="Path_86" data-name="Path 86" d="M193.555-59.549h2.452a2.817,2.817,0,0,1,.919.138,1.874,1.874,0,0,1,.67.381,1.518,1.518,0,0,1,.336.5,1.59,1.59,0,0,1,.117.622v.015a1.583,1.583,0,0,1-.1.573,1.472,1.472,0,0,1-.271.452,1.629,1.629,0,0,1-.412.333,2.124,2.124,0,0,1-.531.211l1.485,1.961h-1.139l-1.356-1.806h-1.214v1.806h-.959Zm2.378,2.569a1.329,1.329,0,0,0,.827-.235.753.753,0,0,0,.308-.635v-.015a.751.751,0,0,0-.3-.644,1.409,1.409,0,0,0-.843-.219h-1.411v1.747Z" transform="translate(165.141 767.307)" fill="#010101"/>
    <path id="Path_87" data-name="Path 87" d="M203.939-59.549h4.071v.822H204.9V-57.4h2.758v.822H204.9v1.384h3.152v.822h-4.11Z" transform="translate(164.368 767.307)" fill="#010101"/>
    <path id="Path_88" data-name="Path 88" d="M133.032-135.244l-.451.127-3.159-1.117-5.22,7.823-3,.875,2.784-17.216Zm-10.79-11.837-2.468,24.145-1-.776-3.335-20.737Zm-8.594,8.525,3.834,11.24-.328.491-11.206-8.347Zm13.287-12.239c-8.714-4.092-20.361-.607-24.475,8.111-3.8,8.056.941,16.861,7.738,19.636,6.742,2.753,6.237,6.647,6.087,7.571a7.233,7.233,0,0,1-.209.99c13.974-1.949,19.389-12.292,19.389-12.292,4.685-8.851.865-19.6-8.53-24.016" transform="translate(172.02 779.265)" fill="#010101"/>
    <path id="Path_89" data-name="Path 89" d="M14.117-78.6h-.065a6.035,6.035,0,0,1-5.074,2.282A8.361,8.361,0,0,1,.5-84.771a8.28,8.28,0,0,1,8.412-8.418,7.059,7.059,0,0,1,5.205,2.066v-11.316h5.958v25.592H14.117ZM6.655-84.739a3.492,3.492,0,0,0,3.829,3.546,3.492,3.492,0,0,0,3.83-3.546,3.546,3.546,0,0,0-3.83-3.577,3.546,3.546,0,0,0-3.829,3.577" transform="translate(179.508 772.824)" fill="#010101"/>
    <path id="Path_90" data-name="Path 90" d="M42.119-75.481H36.16v-1.758H36.1a6.03,6.03,0,0,1-5.073,2.282,8.362,8.362,0,0,1-8.479-8.449,8.282,8.282,0,0,1,8.413-8.418,7.059,7.059,0,0,1,5.2,2.066V-91.3h5.958ZM28.7-83.374a3.492,3.492,0,0,0,3.83,3.546,3.492,3.492,0,0,0,3.83-3.546,3.547,3.547,0,0,0-3.83-3.576,3.546,3.546,0,0,0-3.83,3.576" transform="translate(177.868 771.459)" fill="#010101"/>
    <path id="Path_91" data-name="Path 91" d="M51.646-89.264h.065a5.924,5.924,0,0,1,5.368-2.558c4.518,0,6.318,2.681,6.318,6.568v9.774H57.439v-7.709c0-1.511.262-4.162-2.685-4.162-2.422,0-3.109,1.7-3.109,3.668v8.2H45.688V-91.3h5.958Z" transform="translate(176.145 771.459)" fill="#010101"/>
    <path id="Path_92" data-name="Path 92" d="M83.4-89.51h.065a6.1,6.1,0,0,1,5.073-2.312,8.366,8.366,0,0,1,8.479,8.479,8.236,8.236,0,0,1-8.412,8.385A7.08,7.08,0,0,1,83.4-76.992v9.4H77.446V-91.3H83.4Zm-.2,6.135a3.491,3.491,0,0,0,3.83,3.546,3.491,3.491,0,0,0,3.829-3.546,3.546,3.546,0,0,0-3.829-3.576,3.547,3.547,0,0,0-3.83,3.576" transform="translate(173.782 771.459)" fill="#010101"/>
    <path id="Path_93" data-name="Path 93" d="M118.11-82.45H105.573c0,2.282,1.276,3.517,3.731,3.517a3.022,3.022,0,0,0,2.848-1.451h5.729a6.5,6.5,0,0,1-3.175,4.1,10.767,10.767,0,0,1-5.368,1.325c-5.565,0-9.723-2.958-9.723-8.416,0-5.274,3.83-8.45,9.3-8.45,5.827,0,9.2,3.393,9.2,8.787Zm-5.532-3.237a3.315,3.315,0,0,0-3.371-2.5,3.333,3.333,0,0,0-3.536,2.5Z" transform="translate(172.132 771.459)" fill="#010101"/>
    <path id="Path_94" data-name="Path 94" d="M140.209-75.481h-5.958v-1.758h-.065a6.03,6.03,0,0,1-5.073,2.282,8.362,8.362,0,0,1-8.479-8.449,8.282,8.282,0,0,1,8.413-8.418,7.061,7.061,0,0,1,5.2,2.066V-91.3h5.958Zm-13.421-7.893a3.492,3.492,0,0,0,3.83,3.546,3.492,3.492,0,0,0,3.83-3.546,3.547,3.547,0,0,0-3.83-3.576,3.546,3.546,0,0,0-3.83,3.576" transform="translate(170.567 771.459)" fill="#010101"/>
    <path id="Path_95" data-name="Path 95" d="M149.736-88.662h.064a5.925,5.925,0,0,1,5.435-2.807h1.145v5.395a5.1,5.1,0,0,0-2.52-.523c-3.307,0-4.125,2.067-4.125,4.78v6.382h-5.958V-91.253h5.958Z" transform="translate(168.845 771.413)" fill="#010101"/>
    <path id="Path_96" data-name="Path 96" d="M159-76.846h5.957v-25.591H159Z" transform="translate(167.712 772.824)" fill="#010101"/>
    <path id="Path_97" data-name="Path 97" d="M173.355-89.325h.065a6.35,6.35,0,0,1,5.3-2.5,6.235,6.235,0,0,1,5.73,3.022,6.5,6.5,0,0,1,5.7-3.022c4.256,0,5.73,2.621,5.73,6.259v10.083h-5.959v-7.554c0-1.635.066-4.317-2.455-4.317-2.749,0-2.847,2.436-2.847,4.317v7.554h-5.959v-7.554c0-1.757,0-4.44-2.65-4.44s-2.652,2.683-2.652,4.44v7.554H167.4V-91.3h5.957Z" transform="translate(167.087 771.459)" fill="#010101"/>
    <path id="Path_98" data-name="Path 98" d="M218.3-75.481h-5.957v-1.758h-.067a6.029,6.029,0,0,1-5.073,2.282,8.362,8.362,0,0,1-8.479-8.449,8.283,8.283,0,0,1,8.414-8.418,7.068,7.068,0,0,1,5.205,2.066V-91.3H218.3Zm-13.422-7.893a3.492,3.492,0,0,0,3.831,3.546,3.492,3.492,0,0,0,3.83-3.546,3.547,3.547,0,0,0-3.83-3.576,3.547,3.547,0,0,0-3.831,3.576" transform="translate(164.756 771.459)" fill="#010101"/>
    <path id="Path_99" data-name="Path 99" d="M227.824-89.264h.065a5.924,5.924,0,0,1,5.368-2.558c4.518,0,6.318,2.681,6.318,6.568v9.774h-5.958v-7.709c0-1.511.262-4.162-2.685-4.162-2.422,0-3.109,1.7-3.109,3.668v8.2h-5.957V-91.3h5.957Z" transform="translate(163.033 771.459)" fill="#010101"/>
    <path id="Path_100" data-name="Path 100" d="M.5-66.236H223.1V-152.5H.5Z" transform="translate(179.508 779.265)" fill="none"/>
  </g>
</svg>
