<svg xmlns="http://www.w3.org/2000/svg" xmlns:xlink="http://www.w3.org/1999/xlink" width="218.842" height="90.084" viewBox="0 0 218.842 90.084">
  <defs>
    <clipPath id="clip-path">
      <path id="Path_135" data-name="Path 135" d="M299-62.415H517.842V-152.5H299Z" transform="translate(-299 152.5)" fill="none"/>
    </clipPath>
  </defs>
  <g id="Group_11" data-name="Group 11" clip-path="url(#clip-path)">
    <path id="Path_101" data-name="Path 101" d="M430.994-134.484l-.443.133-3.107-1.166-5.13,8.168-2.949.914L422.1-144.41Zm-10.609-12.358-2.426,25.209-.979-.81L413.7-144.094Zm-8.448,8.9,3.768,11.733-.322.514-11.016-8.715ZM425-150.719c-8.566-4.271-20.017-.633-24.061,8.469-3.736,8.411.924,17.6,7.607,20.5,6.628,2.875,6.132,6.94,5.984,7.905a7.941,7.941,0,0,1-.205,1.034,26.042,26.042,0,0,0,19.062-12.834A18.7,18.7,0,0,0,425-150.719" transform="translate(-308.06 152.5)" fill="#010101"/>
    <path id="Path_102" data-name="Path 102" d="M312.387-77.565h-.064a5.8,5.8,0,0,1-4.989,2.382c-4.892,0-8.334-4.087-8.334-8.82s3.378-8.789,8.27-8.789a6.732,6.732,0,0,1,5.117,2.157V-102.45h5.857v26.72h-5.857Zm-7.338-6.406a3.53,3.53,0,0,0,3.765,3.7,3.53,3.53,0,0,0,3.765-3.7,3.589,3.589,0,0,0-3.765-3.735,3.59,3.59,0,0,0-3.765,3.735" transform="translate(-299 147.993)" fill="#010101"/>
    <path id="Path_103" data-name="Path 103" d="M340.288-74.774h-5.857v-1.835h-.064a5.8,5.8,0,0,1-4.988,2.383c-4.892,0-8.335-4.089-8.335-8.821s3.379-8.789,8.271-8.789a6.731,6.731,0,0,1,5.116,2.156v-1.608h5.857Zm-13.194-8.241a3.531,3.531,0,0,0,3.765,3.7,3.531,3.531,0,0,0,3.765-3.7,3.589,3.589,0,0,0-3.765-3.735,3.589,3.589,0,0,0-3.765,3.735" transform="translate(-300.985 147.037)" fill="#010101"/>
    <path id="Path_104" data-name="Path 104" d="M350.045-89.164h.064a5.709,5.709,0,0,1,5.277-2.672c4.441,0,6.212,2.8,6.212,6.857v10.205h-5.857v-8.048c0-1.577.257-4.346-2.639-4.346-2.381,0-3.057,1.77-3.057,3.83v8.564h-5.857V-91.289h5.857Z" transform="translate(-303.069 147.037)" fill="#010101"/>
    <path id="Path_105" data-name="Path 105" d="M381.8-89.422h.064a5.863,5.863,0,0,1,4.988-2.414c4.923,0,8.334,4.12,8.334,8.854,0,4.763-3.378,8.755-8.27,8.755a6.751,6.751,0,0,1-5.117-2.124v9.818h-5.857V-91.289H381.8Zm-.193,6.406a3.53,3.53,0,0,0,3.765,3.7,3.531,3.531,0,0,0,3.765-3.7,3.589,3.589,0,0,0-3.765-3.734,3.588,3.588,0,0,0-3.765,3.734" transform="translate(-305.929 147.037)" fill="#010101"/>
    <path id="Path_106" data-name="Path 106" d="M416.3-82.05H403.973c0,2.383,1.255,3.67,3.668,3.67a2.925,2.925,0,0,0,2.8-1.513h5.632a6.741,6.741,0,0,1-3.121,4.282,10.11,10.11,0,0,1-5.278,1.383c-5.471,0-9.558-3.09-9.558-8.786,0-5.506,3.765-8.822,9.14-8.822,5.729,0,9.043,3.541,9.043,9.175Zm-5.439-3.38a3.293,3.293,0,0,0-3.314-2.607,3.3,3.3,0,0,0-3.477,2.607Z" transform="translate(-307.926 147.037)" fill="#010101"/>
    <path id="Path_107" data-name="Path 107" d="M438.378-74.774h-5.856v-1.835h-.065a5.8,5.8,0,0,1-4.988,2.383c-4.892,0-8.335-4.089-8.335-8.821s3.38-8.789,8.272-8.789a6.737,6.737,0,0,1,5.116,2.156v-1.608h5.856Zm-13.194-8.241a3.532,3.532,0,0,0,3.766,3.7,3.53,3.53,0,0,0,3.763-3.7,3.588,3.588,0,0,0-3.763-3.735,3.59,3.59,0,0,0-3.766,3.735" transform="translate(-309.819 147.037)" fill="#010101"/>
    <path id="Path_108" data-name="Path 108" d="M448.136-88.553h.063a5.739,5.739,0,0,1,5.343-2.929h1.125v5.634a4.741,4.741,0,0,0-2.476-.547c-3.251,0-4.055,2.158-4.055,4.989v6.664h-5.857V-91.255h5.857Z" transform="translate(-311.903 147.005)" fill="#010101"/>
    <path id="Path_109" data-name="Path 109" d="M457.5-75.73h5.857v-26.719H457.5Z" transform="translate(-313.274 147.993)" fill="#010101"/>
    <path id="Path_110" data-name="Path 110" d="M471.755-89.228h.064a6.11,6.11,0,0,1,5.213-2.607,6.041,6.041,0,0,1,5.633,3.155,6.3,6.3,0,0,1,5.6-3.155c4.184,0,5.633,2.736,5.633,6.534v10.527h-5.858v-7.887c0-1.707.065-4.507-2.414-4.507-2.7,0-2.8,2.543-2.8,4.507v7.887h-5.857v-7.887c0-1.835,0-4.636-2.606-4.636s-2.608,2.8-2.608,4.636v7.887H465.9V-91.288h5.856Z" transform="translate(-314.03 147.037)" fill="#010101"/>
    <path id="Path_111" data-name="Path 111" d="M516.467-74.774h-5.855v-1.835h-.066a5.8,5.8,0,0,1-4.988,2.383c-4.892,0-8.335-4.089-8.335-8.821s3.381-8.789,8.272-8.789a6.738,6.738,0,0,1,5.117,2.156v-1.608h5.855Zm-13.194-8.241a3.532,3.532,0,0,0,3.766,3.7,3.53,3.53,0,0,0,3.764-3.7,3.588,3.588,0,0,0-3.764-3.735,3.59,3.59,0,0,0-3.766,3.735" transform="translate(-316.851 147.037)" fill="#010101"/>
    <path id="Path_112" data-name="Path 112" d="M526.225-89.164h.064a5.71,5.71,0,0,1,5.278-2.672c4.441,0,6.211,2.8,6.211,6.857v10.205h-5.856v-8.048c0-1.577.257-4.346-2.639-4.346-2.381,0-3.057,1.77-3.057,3.83v8.564h-5.856V-91.289h5.856Z" transform="translate(-318.935 147.037)" fill="#010101"/>
    <path id="Path_113" data-name="Path 113" d="M327.313-59.569h4.016v.861h-3.07v1.4h2.721v.861H328.26V-55h3.109v.86h-4.055Z" transform="translate(-301.55 144.131)" fill="#010101"/>
    <path id="Path_114" data-name="Path 114" d="M337.1-56.9l-1.9-2.667h1.124l1.349,1.946,1.357-1.946h1.093l-1.892,2.651,1.969,2.777H339.08L337.654-56.2l-1.434,2.056h-1.094Z" transform="translate(-302.253 144.131)" fill="#010101"/>
    <path id="Path_115" data-name="Path 115" d="M344.346-59.569h2.14a2.714,2.714,0,0,1,.857.128,1.83,1.83,0,0,1,.651.369,1.628,1.628,0,0,1,.41.574,1.866,1.866,0,0,1,.144.745v.015a1.777,1.777,0,0,1-.171.8,1.667,1.667,0,0,1-.466.579,2.109,2.109,0,0,1-.692.352,2.92,2.92,0,0,1-.847.119h-1.08v1.745h-.945Zm2.058,2.824a1.266,1.266,0,0,0,.86-.274.881.881,0,0,0,.315-.7v-.016a.863.863,0,0,0-.32-.728,1.367,1.367,0,0,0-.856-.245h-1.113v1.963Z" transform="translate(-303.084 144.131)" fill="#010101"/>
    <path id="Path_116" data-name="Path 116" d="M352.593-59.569h4.016v.861h-3.07v1.4h2.721v.861H353.54V-55h3.109v.86h-4.055Z" transform="translate(-303.826 144.131)" fill="#010101"/>
    <path id="Path_117" data-name="Path 117" d="M360.858-59.569h2.419a2.62,2.62,0,0,1,.908.145,1.81,1.81,0,0,1,.659.4,1.581,1.581,0,0,1,.334.521,1.756,1.756,0,0,1,.116.651v.015a1.766,1.766,0,0,1-.1.6,1.575,1.575,0,0,1-.267.473,1.6,1.6,0,0,1-.407.349,2.023,2.023,0,0,1-.524.223l1.466,2.054H364.34L363-56.032h-1.2v1.893h-.945Zm2.345,2.691a1.26,1.26,0,0,0,.817-.244.812.812,0,0,0,.3-.667V-57.8a.8.8,0,0,0-.3-.675,1.329,1.329,0,0,0-.832-.23H361.8v1.83Z" transform="translate(-304.571 144.131)" fill="#010101"/>
    <path id="Path_118" data-name="Path 118" d="M369.634-54.14h.946v-5.428h-.946Z" transform="translate(-305.361 144.131)" fill="#010101"/>
    <path id="Path_119" data-name="Path 119" d="M374.832-59.569h4.017v.861h-3.07v1.4H378.5v.861h-2.721V-55h3.109v.86h-4.055Z" transform="translate(-305.829 144.131)" fill="#010101"/>
    <path id="Path_120" data-name="Path 120" d="M383.1-59.569h.882l2.9,3.754v-3.754h.945v5.429h-.8L384.043-58v3.863H383.1Z" transform="translate(-306.573 144.131)" fill="#010101"/>
    <path id="Path_121" data-name="Path 121" d="M394.889-54.056a2.746,2.746,0,0,1-1.1-.218,2.7,2.7,0,0,1-.875-.593,2.735,2.735,0,0,1-.582-.888,2.858,2.858,0,0,1-.21-1.093v-.016a2.836,2.836,0,0,1,.207-1.089,2.752,2.752,0,0,1,.581-.892,2.76,2.76,0,0,1,.886-.607,2.831,2.831,0,0,1,1.132-.221,3.381,3.381,0,0,1,.678.062,2.81,2.81,0,0,1,.563.174,2.832,2.832,0,0,1,.473.268,3.746,3.746,0,0,1,.411.342l-.613.706a3.067,3.067,0,0,0-.69-.489,1.793,1.793,0,0,0-.83-.186,1.692,1.692,0,0,0-.717.151,1.793,1.793,0,0,0-.57.411,1.853,1.853,0,0,0-.373.61,2.092,2.092,0,0,0-.132.745v.015a2.117,2.117,0,0,0,.132.748,1.876,1.876,0,0,0,.373.617,1.715,1.715,0,0,0,.57.415,1.693,1.693,0,0,0,.717.153,1.794,1.794,0,0,0,.854-.191,3.373,3.373,0,0,0,.705-.517l.613.622a3.614,3.614,0,0,1-.438.4,2.887,2.887,0,0,1-.493.3,2.458,2.458,0,0,1-.577.2,3.392,3.392,0,0,1-.694.065" transform="translate(-307.386 144.14)" fill="#010101"/>
    <path id="Path_122" data-name="Path 122" d="M401.229-59.569h4.017v.861h-3.071v1.4H404.9v.861h-2.722V-55h3.11v.86h-4.055Z" transform="translate(-308.206 144.131)" fill="#010101"/>
    <path id="Path_123" data-name="Path 123" d="M416.483-59.611h.884l2.388,5.468h-1.008l-.551-1.312h-2.566l-.559,1.312H414.1Zm1.365,3.311-.938-2.171-.93,2.171Z" transform="translate(-309.365 144.135)" fill="#010101"/>
    <path id="Path_124" data-name="Path 124" d="M423.894-59.569h2.419a2.621,2.621,0,0,1,.908.145,1.8,1.8,0,0,1,.659.4,1.581,1.581,0,0,1,.334.521,1.755,1.755,0,0,1,.116.651v.015a1.767,1.767,0,0,1-.1.6,1.554,1.554,0,0,1-.268.473,1.6,1.6,0,0,1-.407.349,2,2,0,0,1-.523.223L428.5-54.14h-1.124l-1.337-1.893h-1.2v1.893h-.946Zm2.346,2.691a1.259,1.259,0,0,0,.816-.244.813.813,0,0,0,.3-.667V-57.8a.8.8,0,0,0-.3-.675,1.328,1.328,0,0,0-.832-.23H424.84v1.83Z" transform="translate(-310.247 144.131)" fill="#010101"/>
    <path id="Path_125" data-name="Path 125" d="M435.114-54.056a2.745,2.745,0,0,1-1.1-.218,2.723,2.723,0,0,1-.875-.593,2.713,2.713,0,0,1-.581-.888,2.84,2.84,0,0,1-.211-1.093v-.016a2.836,2.836,0,0,1,.207-1.089,2.74,2.74,0,0,1,.582-.892,2.754,2.754,0,0,1,.885-.607,2.831,2.831,0,0,1,1.132-.221,3.4,3.4,0,0,1,.679.062,2.823,2.823,0,0,1,.562.174,2.829,2.829,0,0,1,.473.268,3.752,3.752,0,0,1,.411.342l-.612.706a3.074,3.074,0,0,0-.691-.489,1.793,1.793,0,0,0-.83-.186,1.692,1.692,0,0,0-.717.151,1.778,1.778,0,0,0-.569.411,1.838,1.838,0,0,0-.374.61,2.093,2.093,0,0,0-.132.745v.015a2.118,2.118,0,0,0,.132.748,1.86,1.86,0,0,0,.374.617,1.7,1.7,0,0,0,.569.415,1.693,1.693,0,0,0,.717.153,1.8,1.8,0,0,0,.854-.191,3.378,3.378,0,0,0,.706-.517l.612.622a3.6,3.6,0,0,1-.437.4,2.932,2.932,0,0,1-.494.3,2.465,2.465,0,0,1-.576.2,3.4,3.4,0,0,1-.7.065" transform="translate(-311.008 144.14)" fill="#010101"/>
    <path id="Path_126" data-name="Path 126" d="M441.455-59.569h.945v2.257h2.605v-2.257h.945v5.429h-.945v-2.288H442.4v2.288h-.945Z" transform="translate(-311.829 144.131)" fill="#010101"/>
    <path id="Path_127" data-name="Path 127" d="M450.546-54.14h.947v-5.428h-.947Z" transform="translate(-312.647 144.131)" fill="#010101"/>
    <path id="Path_128" data-name="Path 128" d="M457.039-58.685h-1.722v-.884h4.405v.884H458v4.545h-.962Z" transform="translate(-313.077 144.131)" fill="#010101"/>
    <path id="Path_129" data-name="Path 129" d="M463.821-59.569h4.018v.861h-3.072v1.4h2.722v.861h-2.722V-55h3.111v.86h-4.056Z" transform="translate(-313.843 144.131)" fill="#010101"/>
    <path id="Path_130" data-name="Path 130" d="M474.59-54.056a2.746,2.746,0,0,1-1.1-.218,2.715,2.715,0,0,1-.875-.593,2.716,2.716,0,0,1-.581-.888,2.839,2.839,0,0,1-.211-1.093v-.016a2.855,2.855,0,0,1,.207-1.089,2.728,2.728,0,0,1,.583-.892,2.729,2.729,0,0,1,.884-.607,2.834,2.834,0,0,1,1.132-.221,3.392,3.392,0,0,1,.679.062,2.824,2.824,0,0,1,.562.174,2.8,2.8,0,0,1,.473.268,3.754,3.754,0,0,1,.411.342l-.612.706a3.094,3.094,0,0,0-.691-.489,1.793,1.793,0,0,0-.83-.186,1.692,1.692,0,0,0-.717.151,1.776,1.776,0,0,0-.569.411,1.837,1.837,0,0,0-.374.61,2.092,2.092,0,0,0-.132.745v.015a2.117,2.117,0,0,0,.132.748,1.859,1.859,0,0,0,.374.617,1.7,1.7,0,0,0,.569.415,1.693,1.693,0,0,0,.717.153,1.794,1.794,0,0,0,.854-.191,3.348,3.348,0,0,0,.706-.517l.613.622a3.593,3.593,0,0,1-.437.4,2.964,2.964,0,0,1-.493.3,2.479,2.479,0,0,1-.578.2,3.391,3.391,0,0,1-.694.065" transform="translate(-314.563 144.14)" fill="#010101"/>
    <path id="Path_131" data-name="Path 131" d="M482.226-58.685H480.5v-.884h4.4v.884h-1.721v4.545h-.962Z" transform="translate(-315.345 144.131)" fill="#010101"/>
    <path id="Path_132" data-name="Path 132" d="M491.225-54.055a2.861,2.861,0,0,1-.954-.15,1.944,1.944,0,0,1-.728-.454,2.032,2.032,0,0,1-.467-.749,3.02,3.02,0,0,1-.162-1.036v-3.124h.945v3.085a1.647,1.647,0,0,0,.367,1.156,1.317,1.317,0,0,0,1.015.4,1.327,1.327,0,0,0,1-.38,1.576,1.576,0,0,0,.366-1.134v-3.124h.946v3.077a3.1,3.1,0,0,1-.167,1.063,2.072,2.072,0,0,1-.469.764,1.9,1.9,0,0,1-.733.459,2.908,2.908,0,0,1-.965.15" transform="translate(-316.103 144.131)" fill="#010101"/>
    <path id="Path_133" data-name="Path 133" d="M498.015-59.569h2.419a2.62,2.62,0,0,1,.908.145,1.818,1.818,0,0,1,.659.4,1.559,1.559,0,0,1,.333.521,1.736,1.736,0,0,1,.117.651v.015a1.766,1.766,0,0,1-.1.6,1.557,1.557,0,0,1-.268.473,1.6,1.6,0,0,1-.407.349,2.018,2.018,0,0,1-.523.223l1.465,2.054H501.5l-1.339-1.893h-1.2v1.893h-.947Zm2.346,2.691a1.261,1.261,0,0,0,.816-.244.81.81,0,0,0,.3-.667V-57.8a.8.8,0,0,0-.3-.675,1.323,1.323,0,0,0-.831-.23h-1.392v1.83Z" transform="translate(-316.922 144.131)" fill="#010101"/>
    <path id="Path_134" data-name="Path 134" d="M506.732-59.569h4.017v.861h-3.071v1.4H510.4v.861h-2.722V-55h3.11v.86h-4.055Z" transform="translate(-317.707 144.131)" fill="#010101"/>
  </g>
</svg>
