<svg xmlns="http://www.w3.org/2000/svg" xmlns:xlink="http://www.w3.org/1999/xlink" width="169.122" height="87.217" viewBox="0 0 169.122 87.217">
  <defs>
    <clipPath id="clip-path">
      <path id="Path_138" data-name="Path 138" d="M895.5-28.783h169.122V-116H895.5Z" transform="translate(-895.5 116)" fill="none"/>
    </clipPath>
  </defs>
  <g id="Group_12" data-name="Group 12" clip-path="url(#clip-path)">
    <path id="Path_136" data-name="Path 136" d="M925.5-19.2a.263.263,0,0,0,.263.263h3.166a2.751,2.751,0,0,0,3.027-2.679,2.455,2.455,0,0,0-1.665-2.264,2.621,2.621,0,0,0,1.359-2.222,2.609,2.609,0,0,0-2.846-2.553h-3.041a.263.263,0,0,0-.263.263Zm1.04-5.1v-3.4h2.264a1.54,1.54,0,0,1,1.668,1.667,1.607,1.607,0,0,1-1.668,1.736Zm-.028,4.431v-3.473h2.292a1.842,1.842,0,0,1,1.986,1.708,1.713,1.713,0,0,1-1.75,1.765Zm10.722.665a.263.263,0,0,0,.264.263h.54a.274.274,0,0,0,.264-.263v-3.542h2.653l1.847,3.68a.239.239,0,0,0,.223.125h.707a.262.262,0,0,0,.235-.4l-1.9-3.527a3.1,3.1,0,0,0,2.055-2.832,2.982,2.982,0,0,0-3.027-2.957h-3.6a.262.262,0,0,0-.264.263Zm1.1-4.457v-3.986h2.694a2.02,2.02,0,0,1,2,1.958,2.025,2.025,0,0,1-2,2.028Zm10.04,4.72h.555a.255.255,0,0,0,.235-.153l1.015-2.29h4.928l1.028,2.29a.256.256,0,0,0,.237.153h.556a.245.245,0,0,0,.235-.36l-4.193-9.344a.25.25,0,0,0-.236-.153h-.139a.25.25,0,0,0-.237.153l-4.222,9.344a.246.246,0,0,0,.237.36m2.194-3.3,2.027-4.556h.112c.679,1.513,1.346,3.041,2.027,4.556ZM961.73-19.2a.273.273,0,0,0,.263.263h.486a.264.264,0,0,0,.263-.263v-7.554h.014l6.376,7.956h.249a.261.261,0,0,0,.263-.25v-9.344a.272.272,0,0,0-.263-.263h-.486a.263.263,0,0,0-.263.263v7.4H968.6l-6.264-7.8h-.346a.262.262,0,0,0-.263.251Zm13.8,0a.259.259,0,0,0,.249.263h3.11a4.878,4.878,0,0,0,4.873-4.873,4.873,4.873,0,0,0-4.873-4.846h-3.11a.259.259,0,0,0-.249.263Zm1.054-.694v-7.82h2.082a3.779,3.779,0,0,1,3.931,3.9,3.782,3.782,0,0,1-3.931,3.916Zm15.929.694a.273.273,0,0,0,.263.263h.555a.273.273,0,0,0,.263-.263v-9.192a.272.272,0,0,0-.263-.263h-.555a.272.272,0,0,0-.263.263Zm6.97,0a.259.259,0,0,0,.249.263h3.111a4.878,4.878,0,0,0,4.873-4.873,4.872,4.872,0,0,0-4.873-4.846h-3.111a.259.259,0,0,0-.249.263Zm1.054-.694v-7.82h2.083a3.778,3.778,0,0,1,3.93,3.9,3.781,3.781,0,0,1-3.93,3.916Zm12.373.694a.263.263,0,0,0,.263.263h5.469a.263.263,0,0,0,.265-.263v-.4a.263.263,0,0,0-.265-.263h-4.664V-23.4h3.984a.265.265,0,0,0,.265-.264v-.4a.273.273,0,0,0-.265-.263h-3.984v-3.391h4.664a.264.264,0,0,0,.265-.263v-.4a.263.263,0,0,0-.265-.263h-5.469a.263.263,0,0,0-.263.263Zm10.177.263h.556a.256.256,0,0,0,.236-.153l1.014-2.29h4.928l1.029,2.29a.252.252,0,0,0,.235.153h.556a.246.246,0,0,0,.237-.36l-4.2-9.344a.246.246,0,0,0-.235-.153h-.139a.249.249,0,0,0-.236.153l-4.221,9.344a.244.244,0,0,0,.235.36m2.194-3.3,2.028-4.556h.112c.681,1.513,1.346,3.041,2.027,4.556Zm10.624,2.318a4.523,4.523,0,0,0,2.929,1.124,2.757,2.757,0,0,0,3-2.5c0-1.612-1.206-2.32-3.081-3.084-1.167-.486-1.876-1.028-1.876-1.959,0-.583.446-1.527,1.918-1.527a3.888,3.888,0,0,1,1.82.639.312.312,0,0,0,.485-.125c.056-.083.112-.181.167-.263a.31.31,0,0,0-.083-.472,4.551,4.551,0,0,0-2.376-.707,2.641,2.641,0,0,0-2.957,2.47c0,1.584.917,2.21,2.444,2.876,1.6.667,2.431,1.237,2.431,2.194a1.675,1.675,0,0,1-1.861,1.529,3.839,3.839,0,0,1-2.347-1.055c-.193-.167-.345-.056-.484.123-.069.084-.139.182-.207.264a.306.306,0,0,0,.082.472" transform="translate(-898.937 106.01)"/>
    <path id="Path_137" data-name="Path 137" d="M1064.612-97.63c.13-1.7-.978-3.131-3.39-3.131-1.7,0-3.979,1.175-5.544,2.413a11.221,11.221,0,0,0-8.869-3.717c-8.413,0-12.065,5.218-12.065,9.522a10.574,10.574,0,0,0,5.608,9.718v.13c-1.955.913-5.608,3.131-5.608,6.653,0,2.086,1.565,4.174,4.435,4.825v.392c-3.13,1.3-6.783,3.783-6.783,7.3,0,2.087.913,3.784,3.26,5.153,2.869,1.63,7.044,2.021,10.173,2.021,6.13.132,10.7-1.956,12.782-3.652,2.869-2.218,4.044-4.7,4.044-7.566a7.724,7.724,0,0,0-3.262-6.391c-2.869-2.348-6.129-2.739-11.086-2.478-5.74.26-8.216.26-8.216-2.348,0-1.566,1.629-2.739,2.8-3.262a17.485,17.485,0,0,0,3.717.262c3.065,0,6.2-.783,8.283-3a10.4,10.4,0,0,0,2.739-7.239,9.978,9.978,0,0,0-.784-4.3,2.531,2.531,0,0,1,1.565-.392,2.972,2.972,0,0,1,1.566.783,2.812,2.812,0,0,0,2.021.913,2.705,2.705,0,0,0,2.609-2.609m-22.435,27.457,5.87-.392c6.261-.261,9,2.086,9,5.87.131,3.847-5.477,5.805-8.869,5.805-3.783,0-5.609-.392-7.63-1.567a5.61,5.61,0,0,1-2.347-4.5,5.769,5.769,0,0,1,3.977-5.216m8.935-23.022c0,4.63-1.108,9.13-4.5,9.13A4.665,4.665,0,0,1,1042.9-85.5c-1.108-.978-1.631-3.066-1.631-5.153,0-2.543.391-5.543,1.827-7.369a4.313,4.313,0,0,1,3.522-1.63,3.681,3.681,0,0,1,3.065,1.3,8.5,8.5,0,0,1,1.434,5.153m-20.531,18.847v-1.5c0-.327-.2-.456-.783-.456h-1.826c-.783,0-1.565-.391-1.565-1.826,0-1.3.066-4.174.066-6.261v-9.39c0-2.674-.718-4.632-3.587-6.717a9.038,9.038,0,0,0-5.739-1.566,10.208,10.208,0,0,0-5.218,1.566,11.051,11.051,0,0,0-3.26,2.607h-.391l-.522-3.39q-.2-.782-.782-.783a3.407,3.407,0,0,0-1.3.522L998.5-98.151c-.392.13-.653.391-.653.651v.521a.667.667,0,0,0,.521.653l.523.26c1.565.783,2.739,1.826,2.739,3.784v14.673c0,1.045-.913,1.3-1.7,1.3h-1.3c-.522,0-.653.13-.653.521v1.24c0,.392.13.651.391.651.391,0,2.479-.195,6.522-.195,3.913,0,5.739.195,6.129.195s.523-.26.523-.651v-1.175c0-.456-.132-.586-.653-.586h-1.174c-.913,0-1.239-.783-1.239-2.218V-91.955c0-1.761.326-3.587,1.37-4.631a6.019,6.019,0,0,1,4.173-1.695,5,5,0,0,1,3.914,1.173c1.564,1.3,1.694,3,1.694,5.61V-84a53.148,53.148,0,0,1-.26,6.131c-.129,1.173-.653,1.564-1.174,1.564h-1.3c-.652,0-.782.13-.782.521v1.11c0,.522.13.781.522.781s2.477-.195,6.39-.195c4.565,0,6.521.195,7.044.195.39,0,.522-.13.522-.456m-36.93-.195v-1.3c0-.327-.13-.456-.652-.456h-2.609c-.653,0-.913-.522-1.045-1.7-.13-.782-.13-3.13-.13-5.608v-7.044c0-5.413,0-9.587.13-10.629.066-.522-.13-.783-.521-.783a4.524,4.524,0,0,0-1.565.392c-1.109.456-7.565,2.739-8.478,3.13-.327.13-.456.262-.456.522v.718c0,.26.065.456.653.586,3,.783,3.391,2.087,3.391,4.044v9.2c0,1.826-.065,3.913-.13,5.869-.065,1.045-.391,1.3-1.045,1.3h-2.868c-.392,0-.651.13-.651.521v1.24c0,.522.195.651.521.651.783,0,3.26-.195,7.042-.195,4.369,0,7.37.195,7.892.195.391,0,.521-.26.521-.651m-4.568-37.3A4.158,4.158,0,0,0,984.926-116a4.158,4.158,0,0,0-4.157,4.158,4.158,4.158,0,0,0,4.157,4.158,4.158,4.158,0,0,0,4.158-4.158m-14.1,12.648a3.185,3.185,0,0,0-3.39-3.262c-2.869,0-5.609,2.217-7.825,5.87h-.261l-.587-4.7c-.065-.391-.2-.783-.588-.783a3.09,3.09,0,0,0-1.043.262l-7.89,3.717c-.391.195-.523.327-.523.587v.391c0,.262.132.391.523.522l1.173.653c1.958,1.043,2.479,2.086,2.479,5.086v12.782a1.537,1.537,0,0,1-1.7,1.761h-2.282c-.456,0-.586.13-.586.521v1.435c0,.327.13.456.456.456.521,0,3.064-.195,7.629-.195,4.761,0,7.63.195,8.086.195.327,0,.456-.13.456-.456v-1.5c0-.327-.13-.456-.522-.456h-2.869c-1.3,0-1.826-.651-1.826-2.739V-91.63a7.411,7.411,0,0,1,.783-3.2,3.4,3.4,0,0,1,2.739-1.891,3,3,0,0,1,1.826.522,5.033,5.033,0,0,0,2.217.522,3.786,3.786,0,0,0,3.521-3.521m-25.9,9.716c0-4.108-.912-6.588-3.521-9.327a10.152,10.152,0,0,0-7.565-3.261,11.908,11.908,0,0,0-8.868,4.044h-.132l-.456-3.2c-.065-.456-.26-.848-.587-.848a4.947,4.947,0,0,0-1.826.522l-7.433,3.262c-.392.13-.523.26-.523.522v.651c0,.262.131.391.523.653l1.434.782c1.956,1.044,2.218,1.958,2.218,3.913v22.5c0,4.956,0,7.178-.131,8.613-.13,1.043-.522,1.7-1.435,1.7h-2.347c-.262,0-.391.195-.391.456v1.435c0,.391.13.521.521.521.523,0,2.87-.194,7.174-.194,5.086,0,7.043.194,7.565.194s.651-.13.651-.521v-1.369c0-.327-.13-.522-.522-.522H931.08c-1.3,0-1.761-.261-1.826-4.044l-.13-11.484a14.511,14.511,0,0,0,5.737,1.175c7.957,0,14.217-6.783,14.217-16.174M942.362-85.3c-.13,6.847-3.325,9.456-6.456,9.456a7.872,7.872,0,0,1-5.088-1.5A3.983,3.983,0,0,1,929.124-81V-95.412a7.041,7.041,0,0,1,5.608-2.869c5.543,0,7.63,6.912,7.63,12.978M900.677-95.8c0-2.283,2.086-3.718,4.5-3.718a5.286,5.286,0,0,1,4.11,2.021l3.13,3.522a.41.41,0,0,0,.522.262l1.238-.588a.859.859,0,0,0,.067-.717l-.848-4.435c-.065-.391-.261-.651-1.24-1.175a12.6,12.6,0,0,0-6.326-1.435,10.786,10.786,0,0,0-6.782,2.153,7.932,7.932,0,0,0-3.325,6.848c0,4.63,3.52,6.847,7.955,8.152,4.565,1.3,6.261,2.479,6.261,5.086,0,2.414-2.088,3.979-4.63,3.979-3.2,0-4.435-1.564-5.609-3.522l-2.15-3.652c-.132-.26-.327-.26-.588-.2l-1.238.392c-.2.065-.262.26-.2.522l1.043,6.586a1.683,1.683,0,0,0,.523.718,13.705,13.705,0,0,0,7.042,1.7c6.456,0,10.89-3.913,10.89-9.392a6.7,6.7,0,0,0-1.956-5.218c-1.7-1.826-3.522-2.607-6.521-3.39-3.913-1.043-5.869-1.826-5.869-4.5" transform="translate(-895.5 116)"/>
  </g>
</svg>
