<svg xmlns="http://www.w3.org/2000/svg" xmlns:xlink="http://www.w3.org/1999/xlink" width="281.871" height="57" viewBox="0 0 281.871 57">
  <defs>
    <clipPath id="clip-path">
      <rect id="Rectangle_1" data-name="Rectangle 1" width="281.871" height="57" fill="#fff"/>
    </clipPath>
  </defs>
  <g id="Group_2" data-name="Group 2" transform="translate(0 0)">
    <g id="Group_1" data-name="Group 1" transform="translate(0 0)" clip-path="url(#clip-path)">
      <path id="Path_1" data-name="Path 1" d="M385.1,10.342c-9.886-4.929-23.1-.731-27.769,9.771-4.313,9.7,1.066,20.31,8.779,23.653,7.651,3.316,7.079,8.008,6.908,9.122a9.2,9.2,0,0,1-.237,1.192,30.055,30.055,0,0,0,22-14.808A21.571,21.571,0,0,0,385.1,10.342M370.029,25.085l4.35,13.538-.373.593L361.293,29.16Zm9.75-10.27-2.8,29.085-1.131-.936-3.784-24.979Zm12.244,14.258-.511.154-3.584-1.346L382,37.3l-3.4,1.054,3.159-20.738Z" transform="translate(-115.184 -2.683)" fill="#fff"/>
      <path id="Path_2" data-name="Path 2" d="M31.179,43.375h-9.52V40.459a9.756,9.756,0,0,1-8.033,3.808,12.742,12.742,0,0,1-9.342-3.688A14.672,14.672,0,0,1,0,29.988,14.494,14.494,0,0,1,4.344,19.456a13.6,13.6,0,0,1,9.4-3.569,10.522,10.522,0,0,1,7.914,3.451V0h9.52ZM19.933,34.569a6.376,6.376,0,0,0,2.023-4.522,6.958,6.958,0,0,0-1.785-4.283,5.821,5.821,0,0,0-4.344-1.785A5.822,5.822,0,0,0,11.6,25.7a6.528,6.528,0,0,0-1.845,4.522A6.008,6.008,0,0,0,11.6,34.39a5.9,5.9,0,0,0,4.224,1.785,6.5,6.5,0,0,0,4.106-1.607" transform="translate(0 0)" fill="#fff"/>
      <path id="Path_3" data-name="Path 3" d="M70.4,24.384h9.52v26.6H70.4V48.064a9.932,9.932,0,0,1-8.27,3.808,12.737,12.737,0,0,1-9.58-4.224,13.419,13.419,0,0,1-3.808-9.759,14.714,14.714,0,0,1,4.106-10.65,13.691,13.691,0,0,1,9.579-3.749A10.525,10.525,0,0,1,70.4,26.942Zm-10,8.925a6.222,6.222,0,0,0-1.9,4.344A6.135,6.135,0,0,0,60.345,42a6.685,6.685,0,0,0,4.283,1.785,6.1,6.1,0,0,0,4.284-1.844A5.777,5.777,0,0,0,70.7,37.652a5.881,5.881,0,0,0-1.845-4.344,6.032,6.032,0,0,0-8.449,0" transform="translate(-15.779 -7.605)" fill="#fff"/>
      <path id="Path_4" data-name="Path 4" d="M99.068,24.526h9.52v3.332a10.031,10.031,0,0,1,8.449-3.927,10.756,10.756,0,0,1,7.855,2.857c2.26,2.261,2.5,4.522,2.5,7.437v16.9h-9.52V37.675c0-1.547.06-3.867-1.19-5.176a3.984,3.984,0,0,0-3.034-1.131,5.209,5.209,0,0,0-3.511,1.25,6.114,6.114,0,0,0-1.547,4.224v14.28h-9.52Z" transform="translate(-32.071 -7.747)" fill="#fff"/>
      <path id="Path_5" data-name="Path 5" d="M162.65,42.174a13.618,13.618,0,0,0,3.808,1.963,12.366,12.366,0,0,0,3.689.655,4.036,4.036,0,0,0,2.439-.714,1.524,1.524,0,0,0,.475-1.249,1.412,1.412,0,0,0-.475-1.19,5.929,5.929,0,0,0-2.5-.952l-2.5-.6a8.566,8.566,0,0,1-4.642-2.321,6.434,6.434,0,0,1-1.724-4.581,9.5,9.5,0,0,1,2.5-6.485c2.023-2.083,5.593-3.213,9.52-3.213a21.946,21.946,0,0,1,8.508,1.725l-3.213,6.069a13.182,13.182,0,0,0-5-1.309,4.017,4.017,0,0,0-2.2.536,1.427,1.427,0,0,0-.834,1.309,1.55,1.55,0,0,0,1.131,1.488c.892.357,1.666.357,3.153.773l1.726.476a11.26,11.26,0,0,1,3.927,2.082,7.525,7.525,0,0,1,2.023,5.3,8.89,8.89,0,0,1-2.677,6.6c-3.094,3.094-7.616,3.332-9.818,3.332a19.627,19.627,0,0,1-10.709-3.093Z" transform="translate(-51.557 -7.605)" fill="#fff"/>
      <path id="Path_6" data-name="Path 6" d="M197.355,0h9.52V20.11a11.631,11.631,0,0,1,2.975-2.618,12.179,12.179,0,0,1,13.329,1.547c2.38,2.38,2.5,4.879,2.5,7.437v16.9h-9.519V29.928c0-1.963-.119-3.987-1.19-5.176a3.773,3.773,0,0,0-3.034-1.131,5.1,5.1,0,0,0-3.452,1.131,5.79,5.79,0,0,0-1.606,4.342V43.375h-9.52Z" transform="translate(-63.89 0)" fill="#fff"/>
      <path id="Path_7" data-name="Path 7" d="M269.9,47.469c-3.511,3.452-7.616,4.4-11.9,4.4-3.868,0-8.152-.773-11.841-4.4a13.271,13.271,0,0,1-4.106-9.817,13.147,13.147,0,0,1,4.106-9.758A16.605,16.605,0,0,1,258,23.491a16.8,16.8,0,0,1,11.9,4.4A13.147,13.147,0,0,1,274,37.652a13.271,13.271,0,0,1-4.106,9.817m-16.124-14.16a6.069,6.069,0,0,0,4.284,10.353,6.051,6.051,0,0,0,4.224-1.785,5.869,5.869,0,0,0,1.845-4.225,6.461,6.461,0,0,0-1.845-4.344,6.106,6.106,0,0,0-8.508,0" transform="translate(-78.359 -7.605)" fill="#fff"/>
      <path id="Path_8" data-name="Path 8" d="M303.478,64.605h-9.52V24.384h9.52V27.3a9.941,9.941,0,0,1,8.152-3.807,13.219,13.219,0,0,1,9.46,3.867,14.4,14.4,0,0,1,4.045,10.293,14.4,14.4,0,0,1-4.283,10.532,12.776,12.776,0,0,1-9.1,3.688,11.319,11.319,0,0,1-8.27-3.45Zm1.547-31.237a6.488,6.488,0,0,0-1.845,4.4A6.418,6.418,0,0,0,305.025,42a6.081,6.081,0,0,0,4.283,1.785A5.744,5.744,0,0,0,313.533,42a6.294,6.294,0,0,0,1.845-4.225,6.488,6.488,0,0,0-1.845-4.4,5.744,5.744,0,0,0-4.225-1.785,6.081,6.081,0,0,0-4.283,1.785" transform="translate(-95.163 -7.605)" fill="#fff"/>
    </g>
  </g>
</svg>
